<svg width="26" height="37" viewBox="0 0 26 26" fill="none" xmlns="http://www.w3.org/2000/svg">
<rect x="1" y="1" width="24" height="26" rx="4" stroke="#003769" stroke-width="2"/>
<circle cx="13.5" cy="12.5" r="4.5" fill="#003769"/>
<path d="M24 26.5C24 25.1211 23.7284 23.7557 23.2007 22.4818C22.6731 21.2079 21.8996 20.0504 20.9246 19.0754C19.9496 18.1004 18.7921 17.3269 17.5182 16.7993C16.2443 16.2716 14.8789 16 13.5 16C12.1211 16 10.7557 16.2716 9.48182 16.7993C8.2079 17.3269 7.05039 18.1004 6.07538 19.0754C5.10036 20.0504 4.32694 21.2079 3.79926 22.4818C3.27159 23.7557 3 25.1211 3 26.5L13.5 26.5H24Z" fill="#003769"/>
</svg>
