<svg xmlns="http://www.w3.org/2000/svg" viewBox="0 0 1010.33 126.64"><defs><style>.cls-1{fill:#fff;}</style></defs><title>WhiteLogo_ME_1</title><g id="Layer_2" data-name="Layer 2"><g id="Negative"><g id="Montefiore"><path class="cls-1" d="M147.37,80.33c0,16.27-11.29,24.74-24.71,24.74-13,0-23.83-8.35-23.83-23.36,0-15.35,11.51-25,24.73-25,12.75,0,23.81,8.71,23.81,23.6M124,100.49c7.79,0,10-9.39,10-18.21,0-9.62-3.28-21-11.63-21-5.76,0-10.27,6-10.27,18.67,0,10.44,3.74,20.51,11.86,20.51"/><path class="cls-1" d="M169.56,89.84c0,8.48.45,9.85,4.29,10.42l1.7.24c.79.79.68,2.85-.22,3.31-4-.22-7.8-.34-12-.34-3.61,0-7.45.12-12.18.34-.91-.46-1-2.52-.24-3.31l2.5-.35c3.83-.57,4.28-1.83,4.28-10.31V73c0-5.15,0-6.53-2.82-8.25L153.54,64a3.14,3.14,0,0,1,.1-2.64,75.63,75.63,0,0,0,14.69-6.19,1.57,1.57,0,0,1,1.46.92,51.26,51.26,0,0,0-.23,5.27c0,.8.33,1,1,1.14,5.3-3,8.46-5.73,15.47-5.73,9.14,0,13.43,6.42,13.43,15.35V89.84c0,8.48.45,9.85,4.3,10.31l2.59.35c.79.79.68,2.85-.23,3.31-4.74-.22-8.58-.34-12.76-.34-3.72,0-7.56.12-11.51.34-.9-.46-1-2.52-.22-3.31l1.68-.24c3.84-.57,4.3-1.94,4.3-10.42V74c0-5.83-2.26-10.42-9-10.42a9.18,9.18,0,0,0-7.45,3.55c-1.46,2.06-1.58,3.09-1.58,7.33Z"/><path class="cls-1" d="M228.5,63.38c-2,0-2.14.23-2.14,3.89V84.9c0,7.23,1,13.64,8.25,13.64,2.25,0,3.61-.79,5.42-2.06a1.8,1.8,0,0,1,1.46,2.29c-2.25,3.22-7.45,6.3-14.33,6.3-10.73,0-12.64-6.3-12.64-14.32V67.5c0-4-.23-4.12-2-4.12h-3.95a1.91,1.91,0,0,1-.34-3.1,35.87,35.87,0,0,0,8.92-4.81,21.34,21.34,0,0,0,6.21-7.1,2.37,2.37,0,0,1,3.15.57v6.88c0,1.83,0,2.18,2.15,2.18H239.8c.68.33.9,1.25.9,2.4a3.62,3.62,0,0,1-1.46,3Z"/><path class="cls-1" d="M258,76.33c-2.13,0-2.36.1-2.36,1.48,0,10.31,7,18.55,17,18.55,4.51,0,8.24-1.48,10.84-5.72A2.17,2.17,0,0,1,286,92.47,20.31,20.31,0,0,1,267,105.07c-13.1,0-21.8-9.84-21.8-22.91s8.7-25.43,23.84-25.43c8.34,0,16.92,5.5,16.92,15.47a5.27,5.27,0,0,1-.56,2.63c-.69,1-3.28,1.5-7.8,1.5Zm10.4-4.59c3.27,0,4.74-.34,5.52-.8a2.9,2.9,0,0,0,1.13-2.41c0-4.11-2.59-7.45-7.45-7.45-7.56,0-11.06,7.45-11.06,9.86,0,.46.23.8,1.58.8Z"/><path class="cls-1" d="M462.13,76.33c-2.15,0-2.36.1-2.36,1.48,0,10.31,7,18.55,17,18.55,4.51,0,8.25-1.48,10.84-5.72a2.17,2.17,0,0,1,2.48,1.83,20.34,20.34,0,0,1-19.08,12.6c-13.09,0-21.78-9.84-21.78-22.91S458,56.73,473.08,56.73c8.36,0,16.94,5.5,16.94,15.47a5.27,5.27,0,0,1-.56,2.63c-.69,1-3.28,1.5-7.8,1.5Zm10.39-4.59c3.27,0,4.74-.34,5.54-.8a2.92,2.92,0,0,0,1.12-2.41c0-4.11-2.6-7.45-7.44-7.45-7.57,0-11.07,7.45-11.07,9.86,0,.46.23.8,1.58.8Z"/><path class="cls-1" d="M312.36,63.72c-2.37,0-2.37.23-2.37,3.55V89.84c0,8.47.45,9.73,4.4,10.2l4.39.45c.79.8.69,2.87-.22,3.32-5.07-.22-9.48-.35-14.79-.35-3.72,0-7.56.13-12.2.35-.89-.45-1-2.52-.2-3.32l2.47-.35c3.84-.57,4.29-1.83,4.29-10.3V67.16c0-3.09-.12-3.44-2-3.44h-4a1.69,1.69,0,0,1-.34-2.64l4.85-2.51a2.76,2.76,0,0,0,1.58-2.52V54a51.76,51.76,0,0,1,2.37-16.37c2.94-9.06,10.5-16,21.11-16,7.79,0,12.88,3.56,12.88,8.37A5.63,5.63,0,0,1,329,35.43a3.72,3.72,0,0,1-3.28-1.6c-3.61-5.28-6.1-7.57-8.8-7.57-3.84,0-6.88,7.79-6.88,25v3.43c0,3.44.1,3.66,2.47,3.66h11.86a2.32,2.32,0,0,1,.68,1.84c0,1.95-.68,3-1.58,3.55Z"/><path class="cls-1" d="M348.15,89.84c0,8.48.46,9.62,4.29,10.31l2,.35c.8.79.69,2.85-.22,3.31-4.17-.23-8-.35-12.18-.35-3.73,0-7.57.12-11.85.35-.92-.46-1-2.52-.24-3.31l2-.35c3.84-.69,4.28-1.83,4.28-10.31V73c0-5.16,0-6.53-2.82-8.24L332.12,64a3.09,3.09,0,0,1,.11-2.63,66.27,66.27,0,0,0,14.68-6.19,2,2,0,0,1,1.57.92c-.22,3.78-.33,9.28-.33,14ZM335,39.32a6.89,6.89,0,0,1,13.77,0,6.89,6.89,0,0,1-13.77,0"/><path class="cls-1" d="M407,80.33c0,16.27-11.28,24.74-24.71,24.74-13,0-23.83-8.35-23.83-23.36,0-15.35,11.52-25,24.73-25C396,56.73,407,65.44,407,80.33m-23.36,20.16c7.79,0,10-9.39,10-18.21,0-9.62-3.27-21-11.63-21-5.76,0-10.27,6-10.27,18.67,0,10.44,3.73,20.51,11.85,20.51"/><path class="cls-1" d="M417.36,73c0-5.15,0-6.53-2.82-8.25l-1.35-.8a3.05,3.05,0,0,1,.12-2.63,80.49,80.49,0,0,0,14.22-6.19,1.58,1.58,0,0,1,1.57,1c-.11,2.17-.22,4.12-.22,5.16,0,.8.45,1.37,1.13,1.37,3.5-2.52,7.22-5.95,11.05-5.95s6.22,2.62,6.22,5.61A6.26,6.26,0,0,1,441,69a5.52,5.52,0,0,1-3-.92c-2.82-1.94-4.74-2.17-5.42-2.17-2.59,0-3.27,2.64-3.27,8.25V89.84c0,8.47.45,9.73,4.4,10.19l4.41.47c.78.79.67,2.86-.23,3.31-6.78-.22-10.61-.35-14.79-.35-3.73,0-7.46.13-11.75.35-.89-.45-1-2.52-.22-3.31l2-.35c3.83-.69,4.28-1.84,4.28-10.31Z"/><path class="cls-1" d="M96.09,100.49c1.14.46,1,2.87-.23,3.32-4.85-.22-9.25-.35-13.77-.35-5.31,0-10.16.13-15.14.35-.89-.45-1.34-2.63-.22-3.32l3-.58c4.52-.8,4.85-1.6,4.85-9.39V43.67h-.22c-3,6.3-4.63,9.75-6.77,14.33L57.93,78.16c-3.84,8-9.48,20.73-11.51,26.11a3.3,3.3,0,0,1-3,0c-1.91-6.19-6.77-17.41-9.36-23.14l-10-22c-2.15-4.8-5.19-12-6.54-15.46h-.23c-.22,5.61-.45,14.55-.68,19.37-.23,7-.45,17.17-.45,26.57,0,7.56.11,9.28,5,10.2l3.72.68c.8.69.8,2.87-.11,3.32-4.17-.22-7.67-.35-11.85-.35-3.61,0-7.68.13-12.08.35-1-.57-1-2.76-.34-3.32l1.93-.23c5.4-.69,6.19-2.41,7-9.39.79-7.22,1.13-14.66,1.69-26.57C11.53,56.51,12.21,47,12.21,40c0-5.39-1.69-7.68-6.09-8.48l-3.84-.69c-.68-.8-.57-3,.45-3.32,3.39.23,6.43.34,10.6.34,4,0,7.91,0,12.09-.34.46,6.87,3.27,12.82,6.2,19L44,73c.9,2,3.84,7.67,5.31,10.31,1.79-3.31,3.28-6.53,5.87-11.91l10.61-22c3.62-7.56,7.23-14.31,9.15-21.87,3,.23,6.77.34,9.25.34q7.11,0,11.86-.34a2,2,0,0,1,.33,3.32l-3.72.57c-5,.81-6.09,2.63-6.09,8.71,0,16.95.22,33.89,1,50.85.35,7.68,1.59,8.36,5.2,8.93Z"/></g><g id="DNA"><path class="cls-1" d="M656.65,21.6C623.86,29.08,622.43,45,622.43,45,620.36,30,629.18,23.62,633,21.6H612.48V105h29.88a14.44,14.44,0,0,1-3.1-2.94h-12.4l-.05,0a13.78,13.78,0,0,1-2.3-1.77l-.31-.33h13.71a12.59,12.59,0,0,1-1.12-3.22H622.37l0-.09a10.28,10.28,0,0,1-.79-1.8l-.09-.26h15.1a15.18,15.18,0,0,1,.41-3.88h-13.4l.34-.32a22.35,22.35,0,0,1,2.28-1.78l.05,0H637.6a22.87,22.87,0,0,1,1.63-3.49l-7.66,0,.56-.34c1-.63,3.21-1.7,3.3-1.75l.09,0h5c.71-1,1.51-2.13,2.44-3.26l8.34-3S628.23,94.64,668.65,105h4.68V21.6Zm10.64,49.08c-37.4,8.61-47,20.91-47,20.91s-5.41-16.36,30.94-29.68a27.45,27.45,0,0,1-8-4.24H631l0,0a12.16,12.16,0,0,1-2.48-1.8l-.29-.32H641a13.62,13.62,0,0,1-2.45-4H625.23l-.05-.06a8.73,8.73,0,0,1-1.07-1.82l-.12-.28h14a15.31,15.31,0,0,1-.33-3.81H623.68l.07-.26c0-.11.07-.24.11-.38a7.35,7.35,0,0,1,.48-1.41l0-.12h13.45a24.36,24.36,0,0,1,.91-3.77H626.43l.16-.3a8.48,8.48,0,0,1,1.32-1.8l.06-.07h11.59a39.11,39.11,0,0,1,1.8-3.73h-9.49l.55-.42c.75-.59,1.46-1.13,2.36-1.71l.05,0h7.79a44.37,44.37,0,0,1,4-5.41c1.94-.82,10.78-3.1,10.78-3.1-31.82,26.17,7.3,33.5,9.79,33.93l.14,0Z"/></g><polygon class="cls-1" points="876.94 83.57 882.65 83.57 882.65 48.27 899.46 48.27 899.46 42.92 860.14 42.92 860.14 48.27 876.94 48.27 876.94 83.57"/><polygon class="cls-1" points="940.53 78.23 912.48 78.23 912.48 64.55 928.47 64.55 928.47 59.2 912.48 59.2 912.48 48.27 938.9 48.27 938.9 42.92 906.77 42.92 906.77 83.57 940.53 83.57 940.53 78.23"/><rect class="cls-1" x="953.18" y="42.7" width="5.79" height="41.02"/><polygon class="cls-1" points="981.83 54.37 1007.14 83.44 1007.26 83.57 1010.33 83.57 1010.33 42.92 1004.61 42.92 1004.61 72.12 979.37 43.05 979.25 42.92 976.12 42.92 976.12 83.57 981.83 83.57 981.83 54.37"/><polygon class="cls-1" points="774.3 54.37 799.61 83.44 799.73 83.57 802.79 83.57 802.79 42.92 797.08 42.92 797.08 72.12 771.84 43.05 771.73 42.92 768.59 42.92 768.59 83.57 774.3 83.57 774.3 54.37"/><path class="cls-1" d="M837.2,79.26c-5.84,0-12.1-2.36-17.61-6.65l-.32-.25L816,77.28l.28.21a33.11,33.11,0,0,0,21,7.12c12.36,0,18-6.84,18-13.19S850,60.15,841.76,59.21c-2.08-.23-4.07-.35-5.82-.46-4.51-.28-8.08-.49-10.43-2.28a3.88,3.88,0,0,1-1.77-3.25c0-3.29,4.29-5.77,10-5.77a24.9,24.9,0,0,1,15.9,5.92l.31.25,3.33-4.78-.3-.22A32.65,32.65,0,0,0,833.65,42c-9.33,0-15.85,4.7-15.85,11.41,0,3.69,2.11,6.73,5.92,8.56,3.63,1.65,8,2,13.51,2.33l3,.22c5.62.46,9,3,9,6.73C849.26,76,844.3,79.26,837.2,79.26Z"/><polygon class="cls-1" points="733 78.23 704.95 78.23 704.95 64.55 720.93 64.55 720.93 59.2 704.95 59.2 704.95 48.27 731.37 48.27 731.37 42.92 699.23 42.92 699.23 83.57 733 83.57 733 78.23"/><rect class="cls-1" x="745.64" y="42.7" width="5.79" height="41.02"/><rect class="cls-1" x="546.7" width="3.06" height="126.64"/></g></g></svg>